<svg width="267" height="73" viewBox="0 0 267 73" fill="none" xmlns="http://www.w3.org/2000/svg">
<path d="M71.6964 38.2381C71.6964 57.4366 56.133 73 36.9345 73C17.736 73 2.17261 57.4366 2.17261 38.2381C2.17261 19.0396 17.736 3.4762 36.9345 3.4762C56.133 3.4762 71.6964 19.0396 71.6964 38.2381ZM7.38689 38.2381C7.38689 54.5568 20.6158 67.7857 36.9345 67.7857C53.2532 67.7857 66.4821 54.5568 66.4821 38.2381C66.4821 21.9194 53.2532 8.69048 36.9345 8.69048C20.6158 8.69048 7.38689 21.9194 7.38689 38.2381Z" fill="#7045AF"/>
<path d="M9.28949 58.4166C5.88094 54.7462 3.3059 50.3824 1.74069 45.6242C0.175482 40.866 -0.342921 35.8257 0.220981 30.8485C0.784883 25.8713 2.41777 21.0748 5.00783 16.7873C7.59788 12.4999 11.0839 8.82287 15.2272 6.00801C19.3705 3.19315 24.0732 1.30696 29.0133 0.478618C33.9534 -0.349729 39.0141 -0.100669 43.849 1.20874C48.6839 2.51815 53.1786 4.85698 57.0255 8.06507C60.8724 11.2732 63.9806 15.2747 66.1371 19.7958L65.5096 20.0951C63.3962 15.6645 60.3502 11.7429 56.5803 8.59901C52.8103 5.45508 48.4054 3.16302 43.6673 1.8798C38.9291 0.596581 33.9696 0.352502 29.1283 1.16428C24.287 1.97606 19.6784 3.82452 15.6179 6.58309C11.5575 9.34165 8.14116 12.9452 5.60291 17.1468C3.06465 21.3485 1.46442 26.0491 0.911798 30.9268C0.359173 35.8044 0.867209 40.7439 2.40111 45.407C3.93502 50.07 6.45856 54.3465 9.79893 57.9435L9.28949 58.4166Z" fill="#7045AF"/>
<path d="M58.3734 15.8973C63.6557 21.6923 66.3027 29.1446 65.7611 36.6963C65.2194 44.2479 61.531 51.3144 55.4669 56.4184C49.4029 61.5223 41.4326 64.2687 33.2222 64.0834C25.0118 63.8982 17.197 60.7955 11.4113 55.4241L11.8631 55.0109C17.5331 60.2748 25.1916 63.3154 33.2378 63.497C41.284 63.6786 49.0949 60.9871 55.0376 55.9852C60.9804 50.9833 64.595 44.0582 65.1259 36.6576C65.6567 29.257 63.0626 21.9537 57.886 16.2745L58.3734 15.8973Z" fill="#7045AF"/>
<path d="M104.358 27.058C105.246 27.058 106.02 26.95 106.68 26.734C107.34 26.506 107.886 26.188 108.318 25.78C108.762 25.36 109.092 24.856 109.308 24.268C109.524 23.668 109.632 23.002 109.632 22.27C109.632 21.574 109.524 20.944 109.308 20.38C109.092 19.816 108.768 19.336 108.336 18.94C107.904 18.544 107.358 18.244 106.698 18.04C106.038 17.824 105.258 17.716 104.358 17.716H100.74V27.058H104.358ZM104.358 13.972C106.098 13.972 107.604 14.176 108.876 14.584C110.148 14.992 111.198 15.562 112.026 16.294C112.854 17.026 113.466 17.902 113.862 18.922C114.27 19.942 114.474 21.058 114.474 22.27C114.474 23.53 114.264 24.688 113.844 25.744C113.424 26.788 112.794 27.688 111.954 28.444C111.114 29.2 110.058 29.788 108.786 30.208C107.526 30.628 106.05 30.838 104.358 30.838H100.74V40H95.898V13.972H104.358ZM123.047 40H118.187V13.972H123.047V40ZM128.029 27.274H137.353V30.982H128.029V27.274ZM167.126 26.986C167.126 28.894 166.808 30.664 166.172 32.296C165.548 33.916 164.66 35.32 163.508 36.508C162.356 37.696 160.97 38.626 159.35 39.298C157.73 39.958 155.93 40.288 153.95 40.288C151.982 40.288 150.188 39.958 148.568 39.298C146.948 38.626 145.556 37.696 144.392 36.508C143.24 35.32 142.346 33.916 141.71 32.296C141.074 30.664 140.756 28.894 140.756 26.986C140.756 25.078 141.074 23.314 141.71 21.694C142.346 20.062 143.24 18.652 144.392 17.464C145.556 16.276 146.948 15.352 148.568 14.692C150.188 14.02 151.982 13.684 153.95 13.684C155.27 13.684 156.512 13.84 157.676 14.152C158.84 14.452 159.908 14.884 160.88 15.448C161.852 16 162.722 16.678 163.49 17.482C164.27 18.274 164.93 19.162 165.47 20.146C166.01 21.13 166.418 22.198 166.694 23.35C166.982 24.502 167.126 25.714 167.126 26.986ZM162.176 26.986C162.176 25.558 161.984 24.28 161.6 23.152C161.216 22.012 160.67 21.046 159.962 20.254C159.254 19.462 158.39 18.856 157.37 18.436C156.362 18.016 155.222 17.806 153.95 17.806C152.678 17.806 151.532 18.016 150.512 18.436C149.504 18.856 148.64 19.462 147.92 20.254C147.212 21.046 146.666 22.012 146.282 23.152C145.898 24.28 145.706 25.558 145.706 26.986C145.706 28.414 145.898 29.698 146.282 30.838C146.666 31.966 147.212 32.926 147.92 33.718C148.64 34.498 149.504 35.098 150.512 35.518C151.532 35.938 152.678 36.148 153.95 36.148C155.222 36.148 156.362 35.938 157.37 35.518C158.39 35.098 159.254 34.498 159.962 33.718C160.67 32.926 161.216 31.966 161.6 30.838C161.984 29.698 162.176 28.414 162.176 26.986ZM193.32 13.972V40H188.46V28.624H176.238V40H171.378V13.972H176.238V25.168H188.46V13.972H193.32ZM198.271 27.274H207.595V30.982H198.271V27.274ZM217.406 17.824V25.042H226.514V28.768H217.406V36.13H228.962V40H212.546V13.972H228.962V17.824H217.406ZM247.113 18.706C246.969 18.958 246.813 19.144 246.645 19.264C246.489 19.372 246.291 19.426 246.051 19.426C245.799 19.426 245.523 19.336 245.223 19.156C244.935 18.964 244.587 18.754 244.179 18.526C243.771 18.298 243.291 18.094 242.739 17.914C242.199 17.722 241.557 17.626 240.813 17.626C240.141 17.626 239.553 17.71 239.049 17.878C238.545 18.034 238.119 18.256 237.771 18.544C237.435 18.832 237.183 19.18 237.015 19.588C236.847 19.984 236.763 20.422 236.763 20.902C236.763 21.514 236.931 22.024 237.267 22.432C237.615 22.84 238.071 23.188 238.635 23.476C239.199 23.764 239.841 24.022 240.561 24.25C241.281 24.478 242.019 24.724 242.775 24.988C243.531 25.24 244.269 25.54 244.989 25.888C245.709 26.224 246.351 26.656 246.915 27.184C247.479 27.7 247.929 28.336 248.265 29.092C248.613 29.848 248.787 30.766 248.787 31.846C248.787 33.022 248.583 34.126 248.175 35.158C247.779 36.178 247.191 37.072 246.411 37.84C245.643 38.596 244.701 39.196 243.585 39.64C242.469 40.072 241.191 40.288 239.751 40.288C238.923 40.288 238.107 40.204 237.303 40.036C236.499 39.88 235.725 39.652 234.981 39.352C234.249 39.052 233.559 38.692 232.911 38.272C232.263 37.852 231.687 37.384 231.183 36.868L232.605 34.546C232.725 34.378 232.881 34.24 233.073 34.132C233.265 34.012 233.469 33.952 233.685 33.952C233.985 33.952 234.309 34.078 234.657 34.33C235.005 34.57 235.419 34.84 235.899 35.14C236.379 35.44 236.937 35.716 237.573 35.968C238.221 36.208 238.995 36.328 239.895 36.328C241.275 36.328 242.343 36.004 243.099 35.356C243.855 34.696 244.233 33.754 244.233 32.53C244.233 31.846 244.059 31.288 243.711 30.856C243.375 30.424 242.925 30.064 242.361 29.776C241.797 29.476 241.155 29.224 240.435 29.02C239.715 28.816 238.983 28.594 238.239 28.354C237.495 28.114 236.763 27.826 236.043 27.49C235.323 27.154 234.681 26.716 234.117 26.176C233.553 25.636 233.097 24.964 232.749 24.16C232.413 23.344 232.245 22.342 232.245 21.154C232.245 20.206 232.431 19.282 232.803 18.382C233.187 17.482 233.739 16.684 234.459 15.988C235.179 15.292 236.067 14.734 237.123 14.314C238.179 13.894 239.391 13.684 240.759 13.684C242.295 13.684 243.711 13.924 245.007 14.404C246.303 14.884 247.407 15.556 248.319 16.42L247.113 18.706Z" fill="#111827"/>
<path d="M99.5837 60.861V66H97.8377V60.861L93.1127 53.103H94.6427C94.7987 53.103 94.9217 53.142 95.0117 53.22C95.1017 53.292 95.1797 53.388 95.2457 53.508L98.1977 58.521C98.3057 58.731 98.4047 58.929 98.4947 59.115C98.5847 59.295 98.6627 59.478 98.7287 59.664C98.7947 59.478 98.8697 59.295 98.9537 59.115C99.0377 58.929 99.1307 58.731 99.2327 58.521L102.176 53.508C102.23 53.406 102.305 53.313 102.401 53.229C102.497 53.145 102.62 53.103 102.77 53.103H104.309L99.5837 60.861ZM107.47 56.739C108.136 56.739 108.736 56.85 109.27 57.072C109.804 57.294 110.26 57.609 110.638 58.017C111.016 58.425 111.304 58.92 111.502 59.502C111.706 60.078 111.808 60.723 111.808 61.437C111.808 62.157 111.706 62.805 111.502 63.381C111.304 63.957 111.016 64.449 110.638 64.857C110.26 65.265 109.804 65.58 109.27 65.802C108.736 66.018 108.136 66.126 107.47 66.126C106.798 66.126 106.192 66.018 105.652 65.802C105.118 65.58 104.662 65.265 104.284 64.857C103.906 64.449 103.615 63.957 103.411 63.381C103.213 62.805 103.114 62.157 103.114 61.437C103.114 60.723 103.213 60.078 103.411 59.502C103.615 58.92 103.906 58.425 104.284 58.017C104.662 57.609 105.118 57.294 105.652 57.072C106.192 56.85 106.798 56.739 107.47 56.739ZM107.47 64.875C108.37 64.875 109.042 64.575 109.486 63.975C109.93 63.369 110.152 62.526 110.152 61.446C110.152 60.36 109.93 59.514 109.486 58.908C109.042 58.302 108.37 57.999 107.47 57.999C107.014 57.999 106.615 58.077 106.273 58.233C105.937 58.389 105.655 58.614 105.427 58.908C105.205 59.202 105.037 59.565 104.923 59.997C104.815 60.423 104.761 60.906 104.761 61.446C104.761 62.526 104.983 63.369 105.427 63.975C105.877 64.575 106.558 64.875 107.47 64.875ZM121.337 56.883V66H120.383C120.155 66 120.011 65.889 119.951 65.667L119.825 64.686C119.429 65.124 118.985 65.478 118.493 65.748C118.001 66.012 117.437 66.144 116.801 66.144C116.303 66.144 115.862 66.063 115.478 65.901C115.1 65.733 114.782 65.499 114.524 65.199C114.266 64.899 114.071 64.536 113.939 64.11C113.813 63.684 113.75 63.213 113.75 62.697V56.883H115.352V62.697C115.352 63.387 115.508 63.921 115.82 64.299C116.138 64.677 116.621 64.866 117.269 64.866C117.743 64.866 118.184 64.755 118.592 64.533C119.006 64.305 119.387 63.993 119.735 63.597V56.883H121.337ZM125.398 58.71C125.686 58.086 126.04 57.6 126.46 57.252C126.88 56.898 127.393 56.721 127.999 56.721C128.191 56.721 128.374 56.742 128.548 56.784C128.728 56.826 128.887 56.892 129.025 56.982L128.908 58.179C128.872 58.329 128.782 58.404 128.638 58.404C128.554 58.404 128.431 58.386 128.269 58.35C128.107 58.314 127.924 58.296 127.72 58.296C127.432 58.296 127.174 58.338 126.946 58.422C126.724 58.506 126.523 58.632 126.343 58.8C126.169 58.962 126.01 59.166 125.866 59.412C125.728 59.652 125.602 59.928 125.488 60.24V66H123.877V56.883H124.795C124.969 56.883 125.089 56.916 125.155 56.982C125.221 57.048 125.266 57.162 125.29 57.324L125.398 58.71ZM138.838 59.79C139.336 59.79 139.774 59.724 140.152 59.592C140.536 59.46 140.857 59.277 141.115 59.043C141.379 58.803 141.577 58.518 141.709 58.188C141.841 57.858 141.907 57.495 141.907 57.099C141.907 56.277 141.652 55.635 141.142 55.173C140.638 54.711 139.87 54.48 138.838 54.48H136.768V59.79H138.838ZM138.838 53.103C139.654 53.103 140.362 53.199 140.962 53.391C141.568 53.577 142.069 53.844 142.465 54.192C142.861 54.54 143.155 54.96 143.347 55.452C143.545 55.944 143.644 56.493 143.644 57.099C143.644 57.699 143.539 58.248 143.329 58.746C143.119 59.244 142.81 59.673 142.402 60.033C142 60.393 141.499 60.675 140.899 60.879C140.305 61.077 139.618 61.176 138.838 61.176H136.768V66H135.031V53.103H138.838ZM157.757 59.556C157.757 60.522 157.604 61.41 157.298 62.22C156.992 63.024 156.56 63.717 156.002 64.299C155.444 64.881 154.772 65.334 153.986 65.658C153.206 65.976 152.342 66.135 151.394 66.135C150.446 66.135 149.582 65.976 148.802 65.658C148.022 65.334 147.353 64.881 146.795 64.299C146.237 63.717 145.805 63.024 145.499 62.22C145.193 61.41 145.04 60.522 145.04 59.556C145.04 58.59 145.193 57.705 145.499 56.901C145.805 56.091 146.237 55.395 146.795 54.813C147.353 54.225 148.022 53.769 148.802 53.445C149.582 53.121 150.446 52.959 151.394 52.959C152.342 52.959 153.206 53.121 153.986 53.445C154.772 53.769 155.444 54.225 156.002 54.813C156.56 55.395 156.992 56.091 157.298 56.901C157.604 57.705 157.757 58.59 157.757 59.556ZM155.966 59.556C155.966 58.764 155.858 58.053 155.642 57.423C155.426 56.793 155.12 56.262 154.724 55.83C154.328 55.392 153.848 55.056 153.284 54.822C152.72 54.588 152.09 54.471 151.394 54.471C150.704 54.471 150.077 54.588 149.513 54.822C148.949 55.056 148.466 55.392 148.064 55.83C147.668 56.262 147.362 56.793 147.146 57.423C146.93 58.053 146.822 58.764 146.822 59.556C146.822 60.348 146.93 61.059 147.146 61.689C147.362 62.313 147.668 62.844 148.064 63.282C148.466 63.714 148.949 64.047 149.513 64.281C150.077 64.509 150.704 64.623 151.394 64.623C152.09 64.623 152.72 64.509 153.284 64.281C153.848 64.047 154.328 63.714 154.724 63.282C155.12 62.844 155.426 62.313 155.642 61.689C155.858 61.059 155.966 60.348 155.966 59.556ZM166.852 55.119C166.798 55.209 166.738 55.278 166.672 55.326C166.612 55.368 166.537 55.389 166.447 55.389C166.345 55.389 166.225 55.338 166.087 55.236C165.949 55.134 165.775 55.023 165.565 54.903C165.361 54.777 165.112 54.663 164.818 54.561C164.53 54.459 164.179 54.408 163.765 54.408C163.375 54.408 163.03 54.462 162.73 54.57C162.436 54.672 162.187 54.813 161.983 54.993C161.785 55.173 161.635 55.386 161.533 55.632C161.431 55.872 161.38 56.133 161.38 56.415C161.38 56.775 161.467 57.075 161.641 57.315C161.821 57.549 162.055 57.75 162.343 57.918C162.637 58.086 162.967 58.233 163.333 58.359C163.705 58.479 164.083 58.605 164.467 58.737C164.857 58.869 165.235 59.019 165.601 59.187C165.973 59.349 166.303 59.556 166.591 59.808C166.885 60.06 167.119 60.369 167.293 60.735C167.473 61.101 167.563 61.551 167.563 62.085C167.563 62.649 167.467 63.18 167.275 63.678C167.083 64.17 166.801 64.599 166.429 64.965C166.063 65.331 165.61 65.619 165.07 65.829C164.536 66.039 163.927 66.144 163.243 66.144C162.403 66.144 161.641 65.994 160.957 65.694C160.273 65.388 159.688 64.977 159.202 64.461L159.706 63.633C159.754 63.567 159.811 63.513 159.877 63.471C159.949 63.423 160.027 63.399 160.111 63.399C160.189 63.399 160.276 63.432 160.372 63.498C160.474 63.558 160.588 63.636 160.714 63.732C160.84 63.828 160.984 63.933 161.146 64.047C161.308 64.161 161.491 64.266 161.695 64.362C161.905 64.458 162.142 64.539 162.406 64.605C162.67 64.665 162.967 64.695 163.297 64.695C163.711 64.695 164.08 64.638 164.404 64.524C164.728 64.41 165.001 64.251 165.223 64.047C165.451 63.837 165.625 63.588 165.745 63.3C165.865 63.012 165.925 62.691 165.925 62.337C165.925 61.947 165.835 61.629 165.655 61.383C165.481 61.131 165.25 60.921 164.962 60.753C164.674 60.585 164.344 60.444 163.972 60.33C163.6 60.21 163.222 60.09 162.838 59.97C162.454 59.844 162.076 59.7 161.704 59.538C161.332 59.376 161.002 59.166 160.714 58.908C160.426 58.65 160.192 58.329 160.012 57.945C159.838 57.555 159.751 57.075 159.751 56.505C159.751 56.049 159.838 55.608 160.012 55.182C160.192 54.756 160.45 54.378 160.786 54.048C161.128 53.718 161.545 53.454 162.037 53.256C162.535 53.058 163.105 52.959 163.747 52.959C164.467 52.959 165.121 53.073 165.709 53.301C166.303 53.529 166.825 53.859 167.275 54.291L166.852 55.119ZM181.231 55.119C181.177 55.209 181.117 55.278 181.051 55.326C180.991 55.368 180.916 55.389 180.826 55.389C180.724 55.389 180.604 55.338 180.466 55.236C180.328 55.134 180.154 55.023 179.944 54.903C179.74 54.777 179.491 54.663 179.197 54.561C178.909 54.459 178.558 54.408 178.144 54.408C177.754 54.408 177.409 54.462 177.109 54.57C176.815 54.672 176.566 54.813 176.362 54.993C176.164 55.173 176.014 55.386 175.912 55.632C175.81 55.872 175.759 56.133 175.759 56.415C175.759 56.775 175.846 57.075 176.02 57.315C176.2 57.549 176.434 57.75 176.722 57.918C177.016 58.086 177.346 58.233 177.712 58.359C178.084 58.479 178.462 58.605 178.846 58.737C179.236 58.869 179.614 59.019 179.98 59.187C180.352 59.349 180.682 59.556 180.97 59.808C181.264 60.06 181.498 60.369 181.672 60.735C181.852 61.101 181.942 61.551 181.942 62.085C181.942 62.649 181.846 63.18 181.654 63.678C181.462 64.17 181.18 64.599 180.808 64.965C180.442 65.331 179.989 65.619 179.449 65.829C178.915 66.039 178.306 66.144 177.622 66.144C176.782 66.144 176.02 65.994 175.336 65.694C174.652 65.388 174.067 64.977 173.581 64.461L174.085 63.633C174.133 63.567 174.19 63.513 174.256 63.471C174.328 63.423 174.406 63.399 174.49 63.399C174.568 63.399 174.655 63.432 174.751 63.498C174.853 63.558 174.967 63.636 175.093 63.732C175.219 63.828 175.363 63.933 175.525 64.047C175.687 64.161 175.87 64.266 176.074 64.362C176.284 64.458 176.521 64.539 176.785 64.605C177.049 64.665 177.346 64.695 177.676 64.695C178.09 64.695 178.459 64.638 178.783 64.524C179.107 64.41 179.38 64.251 179.602 64.047C179.83 63.837 180.004 63.588 180.124 63.3C180.244 63.012 180.304 62.691 180.304 62.337C180.304 61.947 180.214 61.629 180.034 61.383C179.86 61.131 179.629 60.921 179.341 60.753C179.053 60.585 178.723 60.444 178.351 60.33C177.979 60.21 177.601 60.09 177.217 59.97C176.833 59.844 176.455 59.7 176.083 59.538C175.711 59.376 175.381 59.166 175.093 58.908C174.805 58.65 174.571 58.329 174.391 57.945C174.217 57.555 174.13 57.075 174.13 56.505C174.13 56.049 174.217 55.608 174.391 55.182C174.571 54.756 174.829 54.378 175.165 54.048C175.507 53.718 175.924 53.454 176.416 53.256C176.914 53.058 177.484 52.959 178.126 52.959C178.846 52.959 179.5 53.073 180.088 53.301C180.682 53.529 181.204 53.859 181.654 54.291L181.231 55.119ZM191.421 56.883L186.336 68.691C186.282 68.811 186.213 68.907 186.129 68.979C186.051 69.051 185.928 69.087 185.76 69.087H184.572L186.237 65.469L182.475 56.883H183.861C183.999 56.883 184.107 56.919 184.185 56.991C184.269 57.057 184.326 57.132 184.356 57.216L186.795 62.958C186.891 63.21 186.972 63.474 187.038 63.75C187.122 63.468 187.212 63.201 187.308 62.949L189.675 57.216C189.711 57.12 189.771 57.042 189.855 56.982C189.945 56.916 190.044 56.883 190.152 56.883H191.421ZM197.988 58.386C197.916 58.518 197.805 58.584 197.655 58.584C197.565 58.584 197.463 58.551 197.349 58.485C197.235 58.419 197.094 58.347 196.926 58.269C196.764 58.185 196.569 58.11 196.341 58.044C196.113 57.972 195.843 57.936 195.531 57.936C195.261 57.936 195.018 57.972 194.802 58.044C194.586 58.11 194.4 58.203 194.244 58.323C194.094 58.443 193.977 58.584 193.893 58.746C193.815 58.902 193.776 59.073 193.776 59.259C193.776 59.493 193.842 59.688 193.974 59.844C194.112 60 194.292 60.135 194.514 60.249C194.736 60.363 194.988 60.465 195.27 60.555C195.552 60.639 195.84 60.732 196.134 60.834C196.434 60.93 196.725 61.038 197.007 61.158C197.289 61.278 197.541 61.428 197.763 61.608C197.985 61.788 198.162 62.01 198.294 62.274C198.432 62.532 198.501 62.844 198.501 63.21C198.501 63.63 198.426 64.02 198.276 64.38C198.126 64.734 197.904 65.043 197.61 65.307C197.316 65.565 196.956 65.769 196.53 65.919C196.104 66.069 195.612 66.144 195.054 66.144C194.418 66.144 193.842 66.042 193.326 65.838C192.81 65.628 192.372 65.361 192.012 65.037L192.39 64.425C192.438 64.347 192.495 64.287 192.561 64.245C192.627 64.203 192.711 64.182 192.813 64.182C192.921 64.182 193.035 64.224 193.155 64.308C193.275 64.392 193.419 64.485 193.587 64.587C193.761 64.689 193.971 64.782 194.217 64.866C194.463 64.95 194.769 64.992 195.135 64.992C195.447 64.992 195.72 64.953 195.954 64.875C196.188 64.791 196.383 64.68 196.539 64.542C196.695 64.404 196.809 64.245 196.881 64.065C196.959 63.885 196.998 63.693 196.998 63.489C196.998 63.237 196.929 63.03 196.791 62.868C196.659 62.7 196.482 62.559 196.26 62.445C196.038 62.325 195.783 62.223 195.495 62.139C195.213 62.049 194.922 61.956 194.622 61.86C194.328 61.764 194.037 61.656 193.749 61.536C193.467 61.41 193.215 61.254 192.993 61.068C192.771 60.882 192.591 60.654 192.453 60.384C192.321 60.108 192.255 59.775 192.255 59.385C192.255 59.037 192.327 58.704 192.471 58.386C192.615 58.062 192.825 57.78 193.101 57.54C193.377 57.294 193.716 57.099 194.118 56.955C194.52 56.811 194.979 56.739 195.495 56.739C196.095 56.739 196.632 56.835 197.106 57.027C197.586 57.213 198 57.471 198.348 57.801L197.988 58.386ZM203.264 66.144C202.544 66.144 201.989 65.943 201.599 65.541C201.215 65.139 201.023 64.56 201.023 63.804V58.224H199.925C199.829 58.224 199.748 58.197 199.682 58.143C199.616 58.083 199.583 57.993 199.583 57.873V57.234L201.077 57.045L201.446 54.228C201.464 54.138 201.503 54.066 201.563 54.012C201.629 53.952 201.713 53.922 201.815 53.922H202.625V57.063H205.262V58.224H202.625V63.696C202.625 64.08 202.718 64.365 202.904 64.551C203.09 64.737 203.33 64.83 203.624 64.83C203.792 64.83 203.936 64.809 204.056 64.767C204.182 64.719 204.29 64.668 204.38 64.614C204.47 64.56 204.545 64.512 204.605 64.47C204.671 64.422 204.728 64.398 204.776 64.398C204.86 64.398 204.935 64.449 205.001 64.551L205.469 65.316C205.193 65.574 204.86 65.778 204.47 65.928C204.08 66.072 203.678 66.144 203.264 66.144ZM212.966 60.447C212.966 60.075 212.912 59.736 212.804 59.43C212.702 59.118 212.549 58.851 212.345 58.629C212.147 58.401 211.904 58.227 211.616 58.107C211.328 57.981 211.001 57.918 210.635 57.918C209.867 57.918 209.258 58.143 208.808 58.593C208.364 59.037 208.088 59.655 207.98 60.447H212.966ZM214.262 64.722C214.064 64.962 213.827 65.172 213.551 65.352C213.275 65.526 212.978 65.67 212.66 65.784C212.348 65.898 212.024 65.982 211.688 66.036C211.352 66.096 211.019 66.126 210.689 66.126C210.059 66.126 209.477 66.021 208.943 65.811C208.415 65.595 207.956 65.283 207.566 64.875C207.182 64.461 206.882 63.951 206.666 63.345C206.45 62.739 206.342 62.043 206.342 61.257C206.342 60.621 206.438 60.027 206.63 59.475C206.828 58.923 207.11 58.446 207.476 58.044C207.842 57.636 208.289 57.318 208.817 57.09C209.345 56.856 209.939 56.739 210.599 56.739C211.145 56.739 211.649 56.832 212.111 57.018C212.579 57.198 212.981 57.462 213.317 57.81C213.659 58.152 213.926 58.578 214.118 59.088C214.31 59.592 214.406 60.168 214.406 60.816C214.406 61.068 214.379 61.236 214.325 61.32C214.271 61.404 214.169 61.446 214.019 61.446H207.926C207.944 62.022 208.022 62.523 208.16 62.949C208.304 63.375 208.502 63.732 208.754 64.02C209.006 64.302 209.306 64.515 209.654 64.659C210.002 64.797 210.392 64.866 210.824 64.866C211.226 64.866 211.571 64.821 211.859 64.731C212.153 64.635 212.405 64.533 212.615 64.425C212.825 64.317 212.999 64.218 213.137 64.128C213.281 64.032 213.404 63.984 213.506 63.984C213.638 63.984 213.74 64.035 213.812 64.137L214.262 64.722ZM216.373 66V56.883H217.336C217.564 56.883 217.705 56.994 217.759 57.216L217.876 58.152C218.212 57.738 218.59 57.399 219.01 57.135C219.43 56.871 219.916 56.739 220.468 56.739C221.08 56.739 221.575 56.91 221.953 57.252C222.337 57.594 222.613 58.056 222.781 58.638C222.913 58.308 223.081 58.023 223.285 57.783C223.495 57.543 223.729 57.345 223.987 57.189C224.245 57.033 224.518 56.919 224.806 56.847C225.1 56.775 225.397 56.739 225.697 56.739C226.177 56.739 226.603 56.817 226.975 56.973C227.353 57.123 227.671 57.345 227.929 57.639C228.193 57.933 228.394 58.296 228.532 58.728C228.67 59.154 228.739 59.643 228.739 60.195V66H227.128V60.195C227.128 59.481 226.972 58.941 226.66 58.575C226.348 58.203 225.898 58.017 225.31 58.017C225.046 58.017 224.794 58.065 224.554 58.161C224.32 58.251 224.113 58.386 223.933 58.566C223.753 58.746 223.609 58.974 223.501 59.25C223.399 59.52 223.348 59.835 223.348 60.195V66H221.737V60.195C221.737 59.463 221.59 58.917 221.296 58.557C221.002 58.197 220.573 58.017 220.009 58.017C219.613 58.017 219.247 58.125 218.911 58.341C218.575 58.551 218.266 58.839 217.984 59.205V66H216.373Z" fill="#333333"/>
</svg>
